<?xml version="1.0" standalone="no"?>
<!DOCTYPE svg PUBLIC "-//W3C//DTD SVG 1.1//EN" "http://www.w3.org/Graphics/SVG/1.1/DTD/svg11.dtd" >
<svg xmlns="http://www.w3.org/2000/svg">
<metadata>Generated by IcoMoon</metadata>
<defs>
<font id="icomoon" horiz-adv-x="1024">
<font-face units-per-em="1024" ascent="960" descent="-64" />
<missing-glyph horiz-adv-x="1024" />
<glyph unicode="&#x20;" horiz-adv-x="512" d="" />
<glyph unicode="&#xe900;" glyph-name="phone-call" d="M819.2 356.133l112.933-113.371c20.773-20.578 31.695-45.056 31.695-70.558 0-25.356-10.728-50.030-31.061-71.192-8.826-9.265-17.896-18.139-26.77-26.575-12.922-12.532-25.307-24.235-35.986-37.205-0.195-0.439-0.634-0.634-0.829-1.024-31.256-33.987-71.192-51.054-118.686-51.054-4.145 0-8.68 0.195-12.971 0.439-70.607 4.486-133.754 31.061-181.053 53.492-127.52 62.639-234.896 147.626-321.168 250.859l-1.246 1.533c-74.264 89.283-124.050 172.617-157.403 262.534-13.556 36.571-31.256 92.599-26.331 152.625 3.036 37.706 19.542 71.065 44.643 95.697l0.023 0.023 70.363 70.949c20.529 19.749 44.861 30.232 69.925 30.232 25.112 0 48.957-10.484 68.949-30.232 13.361-12.337 26.331-25.502 38.668-38.229 6.144-6.583 12.776-13.166 19.115-19.554l56.174-56.174c43.203-43.203 43.203-99.182 0-142.385-5.754-5.754-11.508-11.703-17.262-17.506-15.214-15.409-30.866-31.451-47.787-46.909 12.581-27.794 29.891-55.101 55.589-87.625 53.102-65.243 108.446-115.614 169.35-154.331 5.949-3.706 12.971-7.168 20.334-10.874 5.169-2.682 10.533-5.364 15.848-8.29l65.048 64.853c20.773 20.773 45.056 31.695 70.363 31.695 25.502 0 49.591-11.118 69.534-31.89zM892.83 139.483c20.968 21.797 20.968 43.398-0.195 64.366l-113.762 113.81c-6.388 6.973-16.872 15.019-29.647 15.019-12.971 0-24.040-8.436-31.061-15.458l-70.363-70.363c-3.511-3.462-14.19-14.141-31.256-14.141-7.464 0.064-14.473 1.952-20.622 5.237l0.24-0.117c-0.829 0.39-1.658 0.975-2.438 1.463-5.998 3.657-12.971 7.168-20.382 10.874-8.29 4.096-16.872 8.436-25.356 13.751-66.024 41.789-125.903 96.305-182.662 166.278l-0.195 0.195c-31.305 39.692-51.883 73.045-66.462 108.446l-0.634 1.804c-3.706 11.703-6.973 29.013 10.728 46.665 0.195 0.439 0.585 0.634 0.975 1.024 17.944 16.091 34.377 32.524 51.688 50.225 5.949 5.754 11.703 11.703 17.701 17.701 21.797 21.797 21.797 41.935 0 63.781l-56.174 56.222c-6.583 6.827-13.166 13.361-19.554 19.992-12.12 12.631-24.199 24.618-36.565 36.303l-0.495 0.463-0.585 0.683c-6.583 6.583-17.067 14.385-30.037 14.385-10.533 0-21.211-5.12-31.305-14.629l-70.168-70.12c-17.067-17.067-26.331-37.059-28.379-61.099-3.072-37.644 3.901-77.531 23.064-128.829 31.061-83.919 77.97-162.085 148.139-246.686 82.468-98.666 183.598-178.734 298.342-235.423l5.347-2.389c42.569-20.382 99.377-44.227 160.427-48.177 3.121-0.195 6.388-0.195 9.509-0.195 32.085 0 56.564 10.484 77.336 32.719 12.776 15.019 26.331 28.379 39.741 41.155 8.826 8.631 17.067 16.482 25.064 25.112-0.195-0.195-0.195 0 0 0z" />
<glyph unicode="&#xe901;" glyph-name="award" horiz-adv-x="853" d="M847.411 70.417l-107.622 138.103c35.63 10.843 65.061 33.070 84.793 62.369l0.352 0.555c25.344 43.742 13.875 97.109 2.782 148.651-6.298 23.806-10.581 51.493-11.929 79.948l-0.034 0.914c1.246 27.307 5.257 54.443 11.964 80.947 11.025 51.575 22.562 104.909-2.782 148.582-26.249 45.261-79.087 62.020-130.219 78.182-28.162 7.85-52.561 17.654-75.565 29.752l2.076-0.995c-22.145 14.453-41.427 30.161-58.911 47.664l-0.003 0.003c-37.939 35.123-80.913 74.906-135.646 74.906-54.716 0-97.707-39.765-135.646-74.889-17.488-17.513-36.769-33.226-57.547-46.843l-1.367-0.841c-20.933-11.078-45.34-20.854-70.837-28.030l-2.669-0.642c-51.115-16.179-103.936-32.939-130.202-78.199-25.344-43.742-13.875-97.109-2.782-148.651 6.69-26.522 10.701-53.623 11.947-80.947-1.246-27.307-5.257-54.426-11.964-80.93-11.025-51.575-22.562-104.926 2.782-148.582 20.107-29.863 49.569-52.087 84.128-62.619l1.103-0.289-107.691-138.103c-2.344-2.966-3.759-6.759-3.759-10.882 0-9.737 7.893-17.63 17.63-17.63 0.802 0 1.591 0.054 2.365 0.157l-0.090-0.010 126.464 15.77 31.215-109.039c2.188-7.456 8.967-12.807 16.996-12.807 5.659 0 10.697 2.659 13.934 6.795l0.029 0.039 112.947 145.015c26.861-26.119 62.722-43.107 102.5-45.881l0.514-0.029c40.286 2.807 76.141 19.793 103.035 45.946l-0.038-0.037 112.947-144.981c3.269-4.169 8.306-6.823 13.963-6.823 8.016 0 14.787 5.329 16.964 12.637l0.032 0.125 31.232 109.022 126.447-15.77c0.654-0.086 1.41-0.135 2.177-0.135 9.765 0 17.681 7.916 17.681 17.681 0 4.093-1.391 7.861-3.726 10.858l0.030-0.040zM204.169-8.055l-25.788 90.146c-2.19 7.453-8.968 12.802-16.994 12.802-0.777 0-1.543-0.050-2.294-0.147l0.089 0.009-99.038-12.356 88.764 113.903 9.779-3.123c28.142-7.823 52.526-17.599 75.518-29.667l-2.080 0.995c22.145-14.453 41.427-30.161 58.911-47.664l0.003-0.003 6.076-5.615-92.928-119.279zM426.667 77.244c-40.858 0-75.213 31.778-111.616 65.468-19.333 19.28-40.691 36.549-63.721 51.453l-1.524 0.924c-22.952 12.298-49.682 23.13-77.627 31.075l-2.894 0.703c-46.746 14.814-90.897 28.791-110.285 62.242-18.5 31.932-8.943 76.442 1.195 123.58 7.287 28.911 11.571 58.487 12.766 88.269-1.314 31.965-5.893 62.218-13.425 91.283l0.659-2.997c-10.121 47.104-19.678 91.631-1.178 123.58 19.456 33.451 63.539 47.428 110.285 62.242 30.834 8.651 57.558 19.482 82.725 32.855l-2.221-1.077c24.548 15.834 45.9 33.108 65.236 52.402l-0.007-0.007c36.42 33.655 70.775 65.434 111.633 65.434s75.213-31.778 111.616-65.468c19.333-19.287 40.691-36.561 63.722-51.47l1.524-0.924c22.952-12.293 49.682-23.119 77.627-31.058l2.893-0.703c46.746-14.814 90.897-28.791 110.285-62.242 18.5-31.932 8.943-76.459-1.195-123.58-6.871-26.066-11.45-56.32-12.738-87.424l-0.028-0.862c1.195-29.781 5.461-59.358 12.766-88.269 10.121-47.121 19.678-91.631 1.178-123.58-19.456-33.451-63.539-47.428-110.285-62.242-30.834-8.651-57.558-19.482-82.725-32.855l2.221 1.077c-24.548-15.834-45.9-33.108-65.236-52.402l0.007 0.007c-36.42-33.673-70.775-65.451-111.633-65.451zM694.238 94.754c-0.662 0.088-1.428 0.138-2.206 0.138-8.027 0-14.804-5.349-16.963-12.676l-0.032-0.125-25.89-90.146-92.911 119.262 6.076 5.632c17.483 17.506 36.759 33.213 57.531 46.827l1.366 0.84c20.933 11.078 45.34 20.854 70.837 28.030l2.669 0.642 9.779 3.123 88.781-113.903-99.038 12.356zM426.667 818.756c-175.821 0-318.345-142.285-318.345-317.781 0-175.514 142.524-317.798 318.345-317.798s318.345 142.285 318.345 317.781c-0.222 175.445-142.609 317.611-318.345 317.798zM426.667 218.487c-156.279 0-282.965 126.464-282.965 282.47 0 156.023 126.686 282.487 282.965 282.487s282.965-126.464 282.965-282.487c-0.171-155.921-126.754-282.283-282.965-282.47zM630.716 574.703c11.503-15.753 8.021-37.837-7.765-49.323l-87.654-63.556 33.468-102.895c1.157-3.315 1.825-7.137 1.825-11.114 0-11.662-5.742-21.983-14.554-28.289l-0.105-0.071c-5.734-4.289-12.963-6.868-20.796-6.868s-15.062 2.579-20.887 6.933l0.091-0.065-87.671 63.556-87.706-63.539c-5.759-4.218-12.985-6.75-20.802-6.75-3.911 0-7.674 0.634-11.192 1.804l0.25-0.072c-14.296 4.729-24.428 17.971-24.428 33.58 0 3.901 0.633 7.654 1.802 11.162l-0.072-0.249 33.485 102.878-87.654 63.556c-8.873 6.49-14.571 16.865-14.571 28.57 0 19.492 15.802 35.294 35.294 35.294 0.041 0 0.081 0 0.122 0h108.367l33.502 102.878c4.792 14.24 18.022 24.314 33.604 24.314s28.812-10.074 33.531-24.064l0.073-0.249 33.604-102.878h108.271c11.298 0 21.931-5.41 28.57-14.541zM504.081 482.833l98.065 71.1h-121.207c-7.663 0-14.438 4.949-16.811 12.22l-37.461 115.046-37.461-115.063c-2.379-7.143-9.004-12.203-16.811-12.203h-121.207l98.048-71.117c6.195-4.506 8.789-12.459 6.417-19.746l-37.427-115.063 98.065 71.117c2.877 2.102 6.484 3.363 10.385 3.363s7.508-1.261 10.435-3.398l-0.050 0.035 98.065-71.117-37.444 115.063c-2.389 7.287 0.205 15.258 6.417 19.763z" />
<glyph unicode="&#xe902;" glyph-name="checked" d="M11.947 408.178c-6.987 7.266-11.447 17.006-11.943 27.781l-0.003 0.094c0 7.964 3.982 19.911 11.947 27.876l55.751 55.751c15.929 15.929 39.822 15.929 55.751 0l3.982-3.982 219.022-234.951c7.964-7.964 19.911-7.964 27.876 0l533.618 553.529h3.982c15.929 15.929 39.822 15.929 55.751 0l55.751-55.751c15.929-15.929 15.929-39.822 0-55.751l-637.156-661.049c-6.649-7.357-16.226-11.96-26.878-11.96-0.351 0-0.7 0.005-1.049 0.015l0.051-0.001c-0.297-0.009-0.647-0.014-0.997-0.014-10.652 0-20.229 4.603-26.85 11.929l-0.028 0.031-310.613 334.507-7.964 11.947z" />
<glyph unicode="&#xe903;" glyph-name="down-arrow" d="M972.345 647.908l-137.899 138.012-348.274-348.274-348.16 348.16-138.012-137.785 486.172-486.172z" />
<glyph unicode="&#xe904;" glyph-name="email" d="M895.628 797.091h-767.255c-45.171-0.053-81.774-36.657-81.827-81.822v-545.471c0.079-45.15 36.673-81.727 81.822-81.78h767.26c45.154 0.053 81.747 36.63 81.827 81.773v545.521c-0.079 45.15-36.673 81.727-81.822 81.78h-0.005zM884.364 742.54l-370.595-370.595-373.76 370.595h744.355zM101.097 181.108v523.171l262.703-260.468-262.703-262.703zM139.683 142.522l262.842 262.889 92.113-91.322c10.659-10.566 27.834-10.519 38.447 0.093l89.833 89.833 261.399-261.446h-744.634zM922.903 181.155l-261.446 261.399 261.446 261.446v-522.892z" />
<glyph unicode="&#xe905;" glyph-name="heart" horiz-adv-x="1142" d="M575.606 816.364l22.37 22.37c55.221 55.541 131.679 89.916 216.165 89.916 0.255 0 0.511 0 0.766-0.001h-0.040c0.319 0.001 0.696 0.002 1.074 0.002 84.272 0 160.537-34.285 215.606-89.667l0.014-0.014c55.276-54.963 89.487-131.061 89.487-215.149 0-0.626-0.002-1.252-0.006-1.877v0.096c0-81.92-31.941-158.917-89.954-216.93l-427.599-426.023c-7.308-7.254-17.376-11.737-28.49-11.737-0.022 0-0.045 0-0.067 0h0.003c-10.476 0-20.874 4.332-28.554 11.973l-426.654 426.732c-55.68 55.189-90.152 131.695-90.152 216.252 0 0.128 0 0.256 0 0.384v-0.020c-0.002 0.449-0.004 0.98-0.004 1.512 0 84.221 34.288 160.435 89.666 215.442l0.017 0.016c55.144 55.398 131.46 89.679 215.783 89.679 0.224 0 0.447 0 0.671-0.001h-0.035c81.841 0 159.114-32.098 217.127-90.151l22.843-22.804zM1039.951 622.041c0 60.455-23.316 116.972-65.93 159.586-40.677 40.756-96.913 65.969-159.039 65.969-0.109 0-0.219 0-0.328 0h0.017c-0.129 0-0.281 0-0.433 0-62.198 0-118.487-25.294-159.144-66.157l-50.933-50.973c-7.325-7.35-17.457-11.898-28.652-11.898s-21.328 4.548-28.651 11.897l-51.398 51.398c-40.684 40.873-96.99 66.167-159.203 66.167-0.218 0-0.436 0-0.654-0.001h0.034c-0.134 0-0.293 0-0.451 0-62.007 0-118.124-25.219-158.653-65.96l-0.009-0.010c-40.746-40.407-65.972-96.409-65.972-158.304 0-0.368 0.001-0.735 0.003-1.103v0.057c-0.001-0.177-0.001-0.387-0.001-0.597 0-62.146 25.297-118.384 66.155-158.978l398.19-398.19 399.084 397.509c40.747 40.407 65.973 96.41 65.973 158.305 0 0.45-0.001 0.901-0.004 1.35v-0.069z" />
<glyph unicode="&#xe906;" glyph-name="instagram" d="M704 960h-384c-176.731 0-320-143.269-320-320v0-384c0-176.731 143.269-320 320-320v0h384c176.731 0 320 143.269 320 320v0 384c0 176.731-143.269 320-320 320v0zM928 256c-0.146-123.653-100.347-223.855-223.986-224h-384.014c-123.653 0.146-223.855 100.347-224 223.986v384.014c0.146 123.653 100.347 223.855 223.986 224h384.014c123.653-0.146 223.855-100.347 224-223.986v-384.014zM512 704c-141.385 0-256-114.615-256-256s114.615-256 256-256v0c141.385 0 256 114.615 256 256s-114.615 256-256 256v0zM512 288c-88.317 0.121-159.879 71.683-160 159.988v0.012c0.097 88.326 71.674 159.903 159.991 160h0.009c88.326-0.097 159.903-71.674 160-159.991v-0.009c-0.121-88.317-71.683-159.879-159.988-160h-0.012zM829.867 723.2c0-23.564-19.103-42.667-42.667-42.667s-42.667 19.103-42.667 42.667c0 23.564 19.103 42.667 42.667 42.667s42.667-19.103 42.667-42.667z" />
<glyph unicode="&#xe907;" glyph-name="magnifying-glass" d="M990 27.6l-235.6 235.6c58.4 71.2 93.6 162.4 93.6 261.8 0 228-185 413-413 413-228.2 0-413-185-413-413s184.8-413 413-413c99.4 0 190.4 35 261.6 93.4l235.6-235.4c16-16 41.8-16 57.8 0 16 15.8 16 41.8 0 57.6zM435 194.2c-182.6 0-331 148.4-331 330.8s148.4 331 331 331c182.4 0 331-148.6 331-331s-148.6-330.8-331-330.8z" />
<glyph unicode="&#xe908;" glyph-name="more" d="M127.019 575.019c-0.693 0.014-1.509 0.021-2.328 0.021-70.15 0-127.019-56.868-127.019-127.019s56.868-127.019 127.019-127.019c0.819 0 1.635 0.008 2.45 0.023l-0.122-0.002c69.142 1.308 124.691 57.665 124.691 126.997s-55.549 125.69-124.569 126.996l-0.122 0.002zM127.019 384.555c-0.006 0-0.014 0-0.021 0-35.063 0-63.488 28.425-63.488 63.488 0 35.056 28.412 63.476 63.465 63.488h0.001c35.063 0 63.488-28.425 63.488-63.488s-28.425-63.488-63.488-63.488v0zM889.003 575.019c-0.693 0.014-1.509 0.021-2.328 0.021-70.15 0-127.019-56.868-127.019-127.019s56.868-127.019 127.019-127.019c0.819 0 1.635 0.008 2.45 0.023l-0.122-0.002c69.142 1.308 124.691 57.665 124.691 126.997s-55.549 125.69-124.569 126.996l-0.122 0.002zM889.003 384.555c-35.063 0-63.488 28.425-63.488 63.488s28.425 63.488 63.488 63.488v0c35.063 0 63.488-28.425 63.488-63.488s-28.425-63.488-63.488-63.488v0zM507.989 575.019c-0.693 0.014-1.509 0.021-2.328 0.021-70.15 0-127.019-56.868-127.019-127.019s56.868-127.019 127.019-127.019c0.819 0 1.635 0.008 2.45 0.023l-0.122-0.002c69.142 1.308 124.691 57.665 124.691 126.997s-55.549 125.69-124.569 126.996l-0.122 0.002zM507.989 384.555c-35.063 0-63.488 28.425-63.488 63.488s28.425 63.488 63.488 63.488v0c35.063 0 63.488-28.425 63.488-63.488s-28.425-63.488-63.488-63.488v0z" />
<glyph unicode="&#xe909;" glyph-name="package" d="M311.381 219.989c-11.042 0-19.994-8.951-19.994-19.994s8.951-19.994 19.994-19.994v0c11.042 0 19.994 8.951 19.994 19.994s-8.951 19.994-19.994 19.994v0zM898.526 579.994l117.641 117.862c3.598 3.621 5.821 8.611 5.821 14.12 0 8.934-5.847 16.502-13.923 19.086l-0.142 0.039-286.43 88.576c-25.945 81.957-101.32 140.322-190.327 140.322-0.078 0-0.157 0-0.235 0h0.012c-83.422-0.053-154.871-51.255-184.69-123.939l-0.483-1.331-331.742-103.629c-8.212-2.602-14.059-10.155-14.059-19.074 0-5.532 2.249-10.538 5.883-14.154l0.001-0.001 120.73-120.969-76.134-127.147c-1.778-2.933-2.83-6.477-2.83-10.267 0-8.774 5.64-16.231 13.493-18.943l0.141-0.042 110.421-36.881v-307.61c0-8.329 5.171-15.804 12.971-18.722l319.744-120.132c3.959-1.399 8.414-1.587 12.766-0.171l0.171 0.051 359.305 119.996c8.141 2.731 13.653 10.377 13.653 18.978v315.819l117.76 37.086c8.192 2.614 14.020 10.157 14.020 19.062 0 5.538-2.254 10.549-5.895 14.166l-0.001 0.001-117.623 117.845zM730.573 759.996c0 5.086-0.222 10.155-0.597 15.206l234.53-72.533-99.601-99.789-162.731 54.34c17.807 29.356 28.361 64.829 28.399 102.765v0.011zM379.904 812.049c22.176 63.316 81.404 107.916 151.053 107.947h0.004c0.057 0 0.125 0 0.193 0 74.428 0 136.944-51.005 154.501-119.968l0.238-1.103c3.157-12.663 4.762-25.771 4.762-38.929 0-37.154-12.305-71.97-35.584-100.693-29.382-36.295-73.934-59.307-123.861-59.307-0.087 0-0.174 0-0.262 0h0.013c-54.163 0.045-102.012 27.040-130.867 68.297l-0.342 0.516c-17.823 25.339-28.485 56.837-28.485 90.826 0 0.127 0 0.254 0 0.381v-0.020c0 17.869 2.901 35.379 8.636 52.053zM57.412 702.754l276.070 86.238c-1.375-8.79-2.16-18.927-2.16-29.248 0-33.345 8.196-64.775 22.684-92.387l-0.522 1.093-196.403-65.553-99.669 99.874zM97.468 450.543l63.113 105.404 320.512-107.042-63.13-105.404-320.512 107.059zM491.025-15.138l-279.433 104.994v280.405c219.87-73.045 209.118-70.81 215.245-70.81 7.238 0.009 13.573 3.868 17.068 9.639l0.050 0.089 47.087 78.609v-402.944zM510.993 481.075l-296.175 98.918 161.28 53.862c36.853-45.181 92.509-73.815 154.854-73.865h0.009c55.774 0 108.203 23.006 145.903 63.522l130.304-43.52-296.175-98.918zM850.33 90.419l-319.369-106.667v419.226l70.758-88.61c5.154-6.451 13.722-9.045 21.572-6.588l227.038 71.492v-288.853zM624.367 350.037l-79.889 100.062 320.427 107.008 99.738-99.925-340.275-107.145zM438.17 175.616l-44.39 16.674c-1.835 0.612-3.948 0.966-6.143 0.966-11.056 0-20.019-8.963-20.019-20.019 0-8.213 4.946-15.271 12.022-18.358l0.129-0.050 44.373-16.674c1.835-0.612 3.948-0.966 6.143-0.966 11.056 0 20.019 8.963 20.019 20.019 0 8.213-4.946 15.271-12.022 18.358l-0.129 0.050zM438.17 90.163l-119.774 45.005c-1.835 0.612-3.948 0.966-6.143 0.966-11.056 0-20.019-8.963-20.019-20.019 0-8.213 4.946-15.271 12.022-18.358l0.129-0.050 119.757-45.005c2.093-0.818 4.516-1.292 7.049-1.292 8.51 0 15.771 5.346 18.608 12.862l0.045 0.137c0.809 2.089 1.278 4.508 1.278 7.035 0 8.514-5.319 15.785-12.815 18.672l-0.137 0.046zM644.881 834.133c-3.609 3.619-8.6 5.857-14.114 5.857s-10.505-2.239-14.114-5.857v0l-105.643-105.847-25.822 25.856c-3.609 3.619-8.6 5.857-14.114 5.857s-10.505-2.239-14.114-5.857v0c-3.614-3.624-5.849-8.625-5.849-14.148s2.235-10.524 5.849-14.149v0l39.936-39.987c3.609-3.619 8.6-5.857 14.114-5.857s10.505 2.239 14.114 5.857l119.757 119.996c7.799 7.817 7.799 20.48 0 28.279z" />
<glyph unicode="&#xe90a;" glyph-name="phone-call-body" d="M786.117 335.321l109.489-109.883c20.086-19.929 30.72-43.678 30.72-68.411 0-24.497-10.398-48.443-30.129-69.002-8.586-8.94-17.329-17.526-25.915-25.718-12.603-12.17-24.537-23.513-34.934-36.076-0.197-0.394-0.591-0.591-0.788-0.985-30.326-32.926-69.002-49.467-115.042-49.467-4.017 0-8.389 0.197-12.603 0.394-68.372 4.372-129.575 30.129-175.458 51.83-120.044 58.053-225.122 140.406-312.478 244.697-71.995 86.567-120.241 167.306-152.576 254.425-13.154 35.525-30.326 89.797-25.521 148.007 2.964 36.507 18.956 68.8 43.261 92.65l0.023 0.022 68.214 68.805c19.929 19.141 43.441 29.302 67.781 29.302s47.458-10.161 66.796-29.302c12.997-11.973 25.521-24.734 37.494-37.1 5.986-6.38 12.367-12.761 18.55-18.905l54.43-54.469c41.905-41.866 41.905-96.098 0-138.004-5.553-5.593-11.146-11.343-16.738-16.935-14.769-14.966-29.932-30.523-46.277-45.489 12.209-26.9 28.948-53.445 53.878-84.953 51.436-63.212 105.078-112.049 164.116-149.543 5.75-3.584 12.564-6.971 19.692-10.555 5.002-2.599 10.24-5.199 15.36-7.995l63.015 62.818c20.165 20.126 43.717 30.72 68.214 30.72 24.734 0 48.049-10.791 67.426-30.917zM857.482 125.322c20.362 21.15 20.362 42.102-0.197 62.425l-110.277 110.277c-6.183 6.774-16.345 14.572-28.711 14.572-12.564 0-23.316-8.192-30.090-14.966l-68.214-68.214c-3.387-3.387-13.785-13.745-30.326-13.745-6.577 0-12.958 1.575-19.692 5.002-0.827 0.394-1.615 0.985-2.442 1.378-5.75 3.584-12.564 6.971-19.692 10.555-9.895 4.761-17.945 9.22-25.733 14.061l1.157-0.67c-64 40.448-122.014 93.342-177.073 161.083l-0.197 0.236c-30.326 38.479-50.255 70.774-64.394 105.078l-0.63 1.812c-3.545 11.343-6.774 28.121 10.398 45.292 0.197 0.394 0.591 0.551 0.985 0.945 17.329 15.557 33.319 31.508 50.058 48.679 5.79 5.593 11.382 11.343 17.132 17.132 21.15 21.15 21.15 40.684 0 61.834l-54.43 54.43-18.905 19.338c-11.765 12.292-23.473 23.937-35.459 35.29l-0.46 0.432-0.591 0.551c-6.38 6.38-16.542 13.942-29.145 13.942-10.161 0-20.519-4.962-30.326-14.178l-67.938-67.899c-16.542-16.542-25.521-35.879-27.53-59.234-2.993-36.47 3.82-75.146 22.331-124.849 30.129-81.329 75.618-157.145 143.596-239.065 82.353-98.304 181.484-175.892 294.321-230.518 41.314-19.771 96.335-42.89 155.569-46.671 2.993-0.197 6.183-0.197 9.177-0.197 31.114 0 54.823 10.161 74.988 31.705 12.327 14.572 25.521 27.53 38.479 39.897 8.546 8.35 16.542 15.951 24.3 24.3-0.197-0.197-0.197 0 0 0zM550.006 695.847c54.285-9.369 101.452-34.884 137.592-71.347l0.018-0.018c36.408-36.205 61.904-83.348 71.144-136.086l0.221-1.524c2.208-12.754 13.19-22.331 26.409-22.331 0.048 0 0.096 0 0.143 0h-0.007c1.575 0 2.993 0.197 4.569 0.394 12.856 2.197 22.519 13.257 22.519 26.574 0 1.604-0.14 3.175-0.409 4.702l0.024-0.162c-11.441 65.658-42.285 122.705-86.318 166.505l-0.013 0.013c-43.814 44.046-100.861 74.89-164.675 86.064l-1.843 0.267c-1.346 0.237-2.895 0.373-4.476 0.373-13.266 0-24.301-9.546-26.612-22.144l-0.025-0.166c-2.599-14.572 6.971-28.711 21.74-31.114zM983.119 503.808c-18.814 108.126-69.616 202.070-142.154 274.171l-0.025 0.025c-72.126 72.563-166.070 123.365-271.165 141.74l-3.031 0.439c-1.348 0.24-2.9 0.377-4.484 0.377-13.207 0-24.184-9.545-26.409-22.114l-0.024-0.162c-0.234-1.336-0.367-2.874-0.367-4.443 0-13.334 9.645-24.415 22.339-26.647l0.163-0.024c92.948-15.754 177.703-59.865 245.090-127.055 64.857-64.448 110.25-148.415 126.625-242.349l0.39-2.702c2.208-12.754 13.19-22.331 26.409-22.331 0.048 0 0.096 0 0.143 0h-0.007c1.575 0 2.993 0.197 4.569 0.394 12.733 2.027 22.349 12.929 22.349 26.077 0 1.641-0.15 3.247-0.436 4.805l0.025-0.162z" />
<glyph unicode="&#xe90b;" glyph-name="placeholder" d="M517.446 913.455c-195.491 0-354.537-159.046-354.537-354.537 0-126.231 38.4-176.826 222.86-420.026 32.023-42.217 68.329-90.065 109.847-145.455 5.029-6.662 12.932-10.923 21.83-10.923s16.801 4.261 21.78 10.854l0.050 0.069c94.056 127.653 129.918 174.777 165.907 221.799l-56.572-76.996c184.925 243.898 223.418 294.679 223.418 420.678 0 195.491-159.092 354.537-354.583 354.537zM605.137 171.194c-26.205-34.537-55.249-72.844-87.692-115.945-32.675 43.38-61.905 81.92-88.204 116.596-179.433 236.591-211.782 279.226-211.782 387.072 0.212 165.592 134.393 299.774 299.965 299.985h0.020c165.592-0.212 299.774-134.393 299.985-299.965v-0.020c0-107.66-32.396-150.435-212.294-387.724zM517.446 749.801c-105.368-0.132-190.75-85.514-190.883-190.87v-0.013c0.106-105.389 85.498-190.797 190.87-190.929h0.013c105.405 0.106 190.824 85.525 190.929 190.919v0.010c-0.132 105.385-85.541 190.777-190.919 190.883h-0.010zM517.446 422.586c-75.271 0.079-136.272 61.064-136.378 136.321v0.010c0.079 75.288 61.091 136.299 136.371 136.378h0.007c75.288-0.079 136.299-61.091 136.378-136.371v-0.007c-0.079-75.288-61.091-136.299-136.371-136.378h-0.007z" />
<glyph unicode="&#xe90c;" glyph-name="shopping-bag" horiz-adv-x="827" d="M807.385 101.218c0-75.106-68.293-135.68-151.749-135.68h-472.812c-83.495 0-151.749 60.574-151.749 135.68 0.079 1.575 0.079 1.575 0.197 2.363v0.276l0.039 0.551 54.154 609.438c1.574 18.438 16.928 32.807 35.639 32.807 0.029 0 0.058 0 0.087 0h101.884c6.996 102.88 92.11 183.697 196.124 183.808h0.011c104.042-0.089 189.178-80.915 196.142-183.202l0.033-0.606h101.888c18.511 0 34.146-14.257 35.722-32.768l54.075-608.886c0.181-0.965 0.285-2.075 0.285-3.209 0-0.201-0.003-0.401-0.010-0.601l0.001 0.029zM419.21 858.585c-64.353-0.063-117.302-48.803-124.014-111.382l-0.048-0.549h248.123c-6.76 63.128-59.709 111.868-124.055 111.931h-0.007zM153.994 674.54l-51.042-574.306c0.67-34.265 35.879-62.818 79.872-62.818h472.812c43.835 0 79.163 28.593 79.872 61.755l-51.2 575.409h-68.529v-69.435c0-0.023 0-0.051 0-0.079 0-19.794-16.046-35.84-35.84-35.84-0.028 0-0.055 0-0.083 0h0.004c-0.035 0-0.077 0-0.118 0-19.794 0-35.84 16.046-35.84 35.84 0 0.028 0 0.056 0 0.083v-0.004 69.396h-249.58v-69.396c0-0.023 0-0.051 0-0.079 0-19.794-16.046-35.84-35.84-35.84-0.028 0-0.055 0-0.083 0h0.004c-0.035 0-0.077 0-0.118 0-19.794 0-35.84 16.046-35.84 35.84 0 0.028 0 0.056 0 0.083v-0.004 69.396h-68.529z" />
<glyph unicode="&#xe90d;" glyph-name="towel" d="M1024 492.516c0 110.48-89.889 200.35-200.332 200.35h-69.26c28.99 28.236 46.974 67.649 46.974 111.263 0 0.013 0 0.026 0 0.038v-0.002 133.567c0 12.325-9.961 22.267-22.249 22.267h-133.567c-56.711 0-106.31-30.571-133.567-75.962-27.276 45.373-76.856 75.962-133.567 75.962h-133.567c-12.288 0-22.249-9.942-22.249-22.267v-133.567c0-43.567 18.022-82.981 46.974-111.299h-158.292c-61.439-0.074-111.225-49.86-111.299-111.293v-0.007c0-36.38 17.538-68.72 44.591-89.051-27.181-20.498-44.573-52.723-44.591-89.011v-0.003c0-50.828 34.406-93.296 81.008-106.589-49.040-36.585-81.008-94.822-81.008-160.582 0-110.462 89.889-200.332 200.332-200.332h712.369c61.439 0.074 111.225 49.86 111.299 111.293v0.007c0 36.38-17.538 68.72-44.591 89.051 27.186 20.501 44.58 52.734 44.591 89.030v0.002c0 50.828-34.406 93.296-81.008 106.589 49.040 36.566 81.008 94.804 81.008 160.545zM534.267 804.184c0.074 61.439 49.86 111.225 111.293 111.299h111.306v-111.318c-0.074-61.439-49.86-111.225-111.293-111.299h-79.842l95.567 95.567c4.031 4.024 6.524 9.587 6.524 15.732s-2.494 11.708-6.524 15.732v0c-4.024 4.031-9.587 6.524-15.732 6.524s-11.708-2.494-15.732-6.524v0l-95.567-95.549v79.816zM267.134 804.184v111.281h111.299c61.446-0.074 111.236-49.871 111.299-111.312v-79.822l-95.567 95.567c-4.024 4.031-9.587 6.524-15.732 6.524s-11.708-2.494-15.732-6.524v0c-4.031-4.024-6.524-9.587-6.524-15.732s2.494-11.708 6.524-15.732v0l95.567-95.586h-79.835c-61.439 0.074-111.225 49.86-111.299 111.293v0.007zM979.465 225.382c-0.063-36.848-29.917-66.701-66.759-66.765h-667.84c-12.298 0-22.267-9.969-22.267-22.267s9.969-22.267 22.267-22.267v0h667.834c36.862-0.053 66.73-29.921 66.783-66.778v-0.005c-0.053-36.862-29.921-66.73-66.778-66.783h-712.374c-85.923 0-155.834 69.93-155.834 155.834s69.911 155.834 155.834 155.834h712.332c36.877-0.042 66.76-29.925 66.802-66.798v-0.004zM823.65 336.701h-712.313c-36.87 0.042-66.749 29.915-66.802 66.778v0.005c0.053 36.862 29.921 66.73 66.778 66.783h667.839c12.293 0 22.258 9.965 22.258 22.258s-9.965 22.258-22.258 22.258v0h-667.853c-36.862 0.053-66.73 29.921-66.783 66.778v0.005c0.053 36.862 29.921 66.73 66.778 66.783h712.374c85.923 0 155.834-69.93 155.834-155.834s-69.911-155.834-155.834-155.834z" />
<glyph unicode="&#xe90e;" glyph-name="user" horiz-adv-x="866" d="M438.036 401.526c-60.14 1.063-109.174 22.331-145.132 63.015-34.737 39.148-54.193 92.554-61.913 154.191-2.382 17.378-3.741 37.46-3.741 57.861 0 13.877 0.629 27.608 1.861 41.165l-0.128-1.745c4.332 93.263 42.85 153.364 101.022 186.368 35.446 20.126 74.161 28.081 110.159 28.081h3.545c40.96-0.788 78.060-10.555 109.962-28.908 57.462-32.847 95.508-92.869 99.84-185.068 1.123-11.94 1.764-25.819 1.764-39.847 0-20.416-1.357-40.514-3.985-60.211l0.252 2.306c-7.759-61.637-27.175-115.003-61.913-154.191-36.194-40.724-85.228-61.952-145.329-63.015h-6.302zM300.898 710.656l-0.118-1.575c-8.153-48.798 2.087-146.865 46.198-196.411 22.489-25.561 52.854-38.203 93.184-38.558h1.89c40.566 0.394 70.774 12.958 93.499 38.597 44.268 49.822 53.721 142.178 46.868 193.575-0.753 1.452-1.194 3.17-1.194 4.991 0 0.184 0.005 0.367 0.013 0.549l-0.001-0.026c-4.726 103.503-59.628 144.226-138.91 145.959h-2.363c-76.761 0-133.986-39.266-138.87-145.526-0.008-0.868-0.094-1.712-0.25-2.53l0.014 0.088 0.039 0.866zM852.204 130.954c-1.457-22.055-4.293-40.29-9.058-53.051-2.901-7.158-7.797-13.006-13.997-17.007l-0.142-0.086c-21.701-13.785-54.351-30.326-102.794-47.655-82.865-29.657-178.137-47.419-284.475-47.419-104.487 0-198.341 17.132-280.34 45.844-50.57 17.723-88.458 36.903-106.89 49.231-6.372 4.010-11.272 9.85-14.017 16.778l-0.082 0.236c-5.081 12.839-8.074 31.153-9.61 53.287-0.709 9.617-1.114 20.834-1.114 32.146 0 2.407 0.018 4.809 0.055 7.207l-0.004-0.362 0.079 1.812c0.084 0.887 0.133 1.918 0.133 2.96 0 0.344-0.005 0.687-0.016 1.029l0.001-0.050c1.024 33.162 3.151 53.366 10.752 77.588 13.43 43.126 40.369 74.594 84.638 89.797 1.024 0.394 1.024 0.394 2.639 0.788 65.221 16.542 131.426 51.673 159.193 72.468 5.77 4.052 12.941 6.475 20.677 6.475 20.020 0 36.25-16.23 36.25-36.25 0-12.284-6.11-23.141-15.457-29.698l-0.116-0.077c-5.356-3.663-13.548-8.98-24.615-15.636-18.314-10.949-38.479-21.819-60.258-31.98-31.665-14.809-64.118-26.86-95.862-34.974-33.201-11.815-43.678-40.842-45.489-100.352l-0.118-3.111-0.079-1.969c-0.041-1.986-0.064-4.328-0.064-6.675 0-16.675 1.168-33.078 3.428-49.13l-0.213 1.848c26.585-14.572 63.094-30.247 107.914-43.835 68.884-20.953 145.329-33.083 228.431-33.083 83.377 0 159.902 12.091 228.628 32.965 44.741 13.588 81.093 29.263 107.481 43.756 2.166 13.863 3.348 35.761 3.23 52.933-0.183 1.454-0.288 3.136-0.288 4.843 0 0.347 0.004 0.692 0.013 1.037l-0.001-0.051c-1.851 59.786-12.288 88.773-44.662 100.352-43.599 11.185-86.41 28.751-126.818 50.137-24.812 13.154-44.111 25.206-55.099 32.965-9.298 6.652-15.286 17.416-15.286 29.578 0 20.025 16.234 36.259 36.259 36.259 7.863 0 15.141-2.503 21.082-6.755l-0.109 0.074c27.057-20.322 94.011-55.729 159.626-72.468l0.551-0.197c0.729-0.195 1.215-0.343 1.697-0.502l-0.239 0.068c44.347-15.124 71.286-46.71 84.677-89.954 7.483-24.182 9.649-44.308 10.634-77.706l0.079-1.93c0.118-1.26 0.118-1.26 0.118-2.954v-0.473c0.197-10.279 0-24.694-0.945-39.030z" />
<glyph unicode="&#xe90f;" glyph-name="wallet" horiz-adv-x="887" d="M852.958 783.906l-310.784 169.028c-29.474 16.043-70.007 3.686-85.965-25.907l-181.794-339.285h-221.099c-28.262 0-50.364-22.204-50.364-50.586v-549.018c0-28.365 22.101-50.569 50.347-50.569h706.304c28.245 0 50.347 22.187 50.347 50.569v128.324h20.89c0.061-0.001 0.134-0.001 0.207-0.001 10.745 0 19.456 8.711 19.456 19.456 0 0.096-0.001 0.193-0.002 0.289v-0.015 146.825c0.001 0.082 0.002 0.178 0.002 0.274 0 10.745-8.711 19.456-19.456 19.456-0.073 0-0.145 0-0.218-0.001h-20.844v144.35c0 23.45-17.203 44.407-39.305 49.357l108.083 201.097c4.587 8.665 7.281 18.941 7.281 29.847 0 24.132-13.188 45.184-32.75 56.343l-0.319 0.167zM631.859 859.17l-194.099-361.506h-55.279l207.616 383.71 41.762-22.204zM491.827 908.51c6.144 11.093 20.873 16.043 31.932 9.882l30.72-17.289-216.218-403.422h-67.55l221.116 410.829zM41.028 538.385c0 3.703 4.915 9.882 11.059 9.882h200.209l-27.017-49.357h-173.193c-3.686 0-7.373 0-11.059-1.229v40.704zM769.434-11.844c0-6.178-4.915-11.11-11.059-11.11h-706.287c-0.010 0-0.022 0-0.034 0-6.089 0-11.025 4.936-11.025 11.025 0 0.024 0 0.048 0 0.072v-0.004 458.957c0 6.161 4.915 11.093 11.059 11.093h705.058c6.144 0 11.059-4.932 11.059-11.093v-144.35h-74.923c-33.178 0-58.965-27.136-58.965-59.221v-67.857c0-0.036 0-0.078 0-0.12 0-32.587 26.373-59.014 58.94-59.102h76.177v-128.307zM808.738 263.27h1.229v-107.349h-116.719c-0.056-0.001-0.123-0.001-0.19-0.001-10.745 0-19.456 8.711-19.456 19.456 0 0.102 0.001 0.204 0.002 0.306v-0.015 67.874c0 11.093 8.602 19.746 19.644 19.746h115.473zM843.127 717.278l-117.931-219.597h-243.2l184.252 341.743 167.049-91.307c12.288-4.932 15.974-19.729 9.83-30.839zM768.205 735.795l-9.83 4.932c-24.576 13.568-57.737 3.703-71.253-20.975l-12.288-23.45c-6.144-12.322-8.585-27.136-3.669-40.704 3.686-13.568 13.517-24.678 25.788-30.839l9.83-4.949c7.373-3.686 15.974-6.144 24.576-6.144 19.644 0 36.847 11.093 46.66 27.136l12.288 23.433c12.288 25.907 2.458 57.993-22.101 71.561zM754.688 682.735l-12.288-23.433c-3.686-6.178-12.288-8.636-18.432-4.949l-9.813 6.178c-2.458 1.229-4.915 4.949-6.144 7.407-1.229 3.703-1.229 7.407 1.229 9.865l12.288 23.45c2.458 3.686 7.373 7.39 12.288 7.39 2.441 0 3.669 0 6.144-1.229l9.813-4.949c4.915-4.915 7.373-12.322 4.915-19.729z" />
<glyph unicode="&#xe910;" glyph-name="close" d="M1009.869 947.917c-7.468 7.47-17.787 12.091-29.184 12.091s-21.716-4.62-29.184-12.091l-939.418-939.418c-7.469-7.469-12.088-17.787-12.088-29.184 0-22.794 18.478-41.272 41.272-41.272 11.397 0 21.715 4.62 29.184 12.088l939.418 939.418c7.47 7.468 12.091 17.787 12.091 29.184s-4.62 21.716-12.091 29.184v0zM1009.869 8.499l-939.418 939.418c-7.469 7.469-17.787 12.088-29.184 12.088-22.794 0-41.272-18.478-41.272-41.272 0-11.397 4.62-21.715 12.088-29.184l939.418-939.418c7.457-7.495 17.779-12.133 29.184-12.133s21.727 4.638 29.182 12.131l0.002 0.002c7.47 7.468 12.091 17.787 12.091 29.184s-4.62 21.716-12.091 29.184v0z" />
<glyph unicode="&#xe911;" glyph-name="menu" horiz-adv-x="1587" d="M58.829 828.365h1441.331c32.512 0 58.88 26.214 58.88 58.47 0 32.307-26.368 58.522-58.88 58.522h-1441.28c-32.512 0-58.88-26.214-58.88-58.522 0-32.256 26.368-58.47 58.829-58.47zM58.829 389.478h1441.331c32.512 0 58.88 26.214 58.88 58.522 0 32.256-26.368 58.522-58.88 58.522h-1441.28c-32.512 0-58.88-26.266-58.88-58.522s26.368-58.522 58.829-58.522zM58.829-49.357h1441.331c32.512 0 58.88 26.214 58.88 58.522 0 32.256-26.368 58.47-58.88 58.47h-1441.28c-32.512 0-58.88-26.163-58.88-58.419 0-32.307 26.368-58.522 58.829-58.522z" />
<glyph unicode="&#xe912;" glyph-name="menu-grid" horiz-adv-x="1067" d="M430.891 914.773c0 23.723-19.371 43.093-43.093 43.093h-344.704c-23.68 0-43.093-19.328-43.093-43.093v-344.704c0-23.68 19.371-43.093 43.093-43.093h344.747c23.68 0 43.051 19.413 43.051 43.093v344.747zM86.144 871.68h258.56v-258.517h-258.517v258.56zM1034.155 914.773c0 23.723-19.413 43.093-43.093 43.093h-344.747c-23.68 0-43.093-19.371-43.093-43.093v-344.704c0-23.68 19.413-43.093 43.093-43.093h344.747c23.68 0 43.093 19.413 43.093 43.093v344.747zM689.408 871.68h258.56v-258.517h-258.56v258.56zM430.891 325.931c0 23.68-19.371 43.093-43.093 43.093h-344.704c-23.68 0-43.051-19.413-43.051-43.093v-344.747c0-23.68 19.371-43.093 43.093-43.093h344.747c23.68 0 43.051 19.413 43.051 43.093v344.747zM86.144 282.837h258.56v-258.56h-258.517v258.56zM1034.155 325.931c0 23.68-19.413 43.093-43.093 43.093h-344.747c-23.68 0-43.093-19.413-43.093-43.093v-344.747c0-23.68 19.413-43.093 43.093-43.093h344.747c23.68 0 43.093 19.413 43.093 43.093v344.747zM689.408 282.837h258.56v-258.56h-258.56v258.56z" />
<glyph unicode="&#xe913;" glyph-name="settings" horiz-adv-x="985" d="M519.68 460.603v433.428c0.002 0.105 0.002 0.23 0.002 0.355 0 14.446-11.678 26.164-26.108 26.23h-0.006c-14.533 0-26.151-11.815-26.151-26.545v-433.467c-60.574-12.367-106.457-66.796-106.457-132.057 0-65.221 45.883-119.65 106.457-132.057v-192.985c0-14.73 11.618-26.506 26.151-26.506s26.112 11.815 26.112 26.545v192.985c60.613 12.367 106.457 66.796 106.457 132.017 0 65.063-45.686 119.69-106.457 132.057zM493.568 246.981c-44.308 0-80.345 36.549-80.345 81.526 0 45.017 36.037 81.566 80.345 81.566s80.345-36.549 80.345-81.526c0-45.017-36.037-81.566-80.345-81.566zM199.759 683.047v211.023c0.001 0.094 0.002 0.204 0.002 0.315 0 14.459-11.7 26.186-26.149 26.23h-0.004c-14.494 0-26.112-11.815-26.112-26.545v-211.023c-60.574-12.406-106.457-66.836-106.457-132.057 0-65.26 45.883-119.729 106.457-132.057v-415.429c0-14.769 11.618-26.545 26.112-26.545 14.533 0 26.151 11.815 26.151 26.545v415.626c60.574 12.367 106.457 66.796 106.457 132.057 0.001 0.17 0.001 0.371 0.001 0.572 0 64.289-45.211 118.017-105.573 131.127l-0.885 0.161zM173.607 469.425c-44.308 0-80.345 36.549-80.345 81.526 0 45.017 36.037 81.566 80.345 81.566 44.347 0 80.345-36.549 80.345-81.526 0-45.017-36.234-81.566-80.345-81.566zM837.711 683.047v211.023c0.001 0.094 0.002 0.204 0.002 0.315 0 14.446-11.677 26.164-26.108 26.23h-0.006c-14.572 0-26.151-11.815-26.151-26.545v-211.023c-60.574-12.406-106.457-66.836-106.457-132.057 0-65.26 45.883-119.729 106.457-132.057v-415.626c0-14.769 11.618-26.545 26.151-26.545 14.494 0 26.112 11.815 26.112 26.545v415.823c60.574 12.367 106.457 66.796 106.457 132.057 0.001 0.208 0.002 0.454 0.002 0.7 0 64.258-45.221 117.954-105.576 131l-0.882 0.16zM811.599 469.425c-44.347 0-80.345 36.549-80.345 81.526 0 45.017 35.998 81.566 80.345 81.566 44.308 0 80.305-36.549 80.305-81.526 0-45.017-35.998-81.566-80.345-81.566z" />
</font>
</defs>
</svg>
